<svg id="instagram_1_" data-name="instagram (1)" xmlns="http://www.w3.org/2000/svg" width="24" height="24" viewBox="0 0 24 24">
  <path id="Path_1540" data-name="Path 1540" d="M211.47,209.235A2.235,2.235,0,1,1,209.235,207,2.235,2.235,0,0,1,211.47,209.235Zm0,0" transform="translate(-197.235 -197.235)" fill="#fff"/>
  <path id="Path_1541" data-name="Path 1541" d="M146.209,137.031a2.22,2.22,0,0,0-1.273-1.273,3.71,3.71,0,0,0-1.245-.231c-.707-.032-.919-.039-2.71-.039s-2,.007-2.71.039a3.712,3.712,0,0,0-1.245.231,2.221,2.221,0,0,0-1.273,1.273,3.712,3.712,0,0,0-.231,1.245c-.032.707-.039.919-.039,2.71s.007,2,.039,2.71a3.711,3.711,0,0,0,.231,1.245,2.221,2.221,0,0,0,1.273,1.273,3.705,3.705,0,0,0,1.245.231c.707.032.919.039,2.71.039s2-.007,2.71-.039a3.705,3.705,0,0,0,1.245-.231,2.221,2.221,0,0,0,1.273-1.273,3.713,3.713,0,0,0,.231-1.245c.032-.707.039-.919.039-2.71s-.007-2-.039-2.71A3.706,3.706,0,0,0,146.209,137.031Zm-5.227,7.4a3.443,3.443,0,1,1,3.443-3.443A3.443,3.443,0,0,1,140.982,144.429Zm3.579-6.218a.8.8,0,1,1,.8-.8A.8.8,0,0,1,144.561,138.211Zm0,0" transform="translate(-128.982 -128.986)" fill="#fff"/>
  <path id="Path_1542" data-name="Path 1542" d="M12,0A12,12,0,1,0,24,12,12,12,0,0,0,12,0Zm6.849,14.841a5.056,5.056,0,0,1-.32,1.673,3.523,3.523,0,0,1-2.015,2.015,5.059,5.059,0,0,1-1.672.32c-.735.034-.97.042-2.841.042s-2.106-.008-2.841-.042a5.059,5.059,0,0,1-1.672-.32,3.523,3.523,0,0,1-2.015-2.015,5.054,5.054,0,0,1-.32-1.672c-.034-.735-.042-.97-.042-2.841s.008-2.106.042-2.841a5.056,5.056,0,0,1,.32-1.673A3.526,3.526,0,0,1,7.486,5.471a5.06,5.06,0,0,1,1.673-.32c.735-.034.97-.042,2.841-.042s2.106.008,2.841.042a5.061,5.061,0,0,1,1.673.32,3.524,3.524,0,0,1,2.015,2.015,5.055,5.055,0,0,1,.32,1.673c.034.735.041.97.041,2.841S18.883,14.106,18.849,14.841Zm0,0" fill="#fff"/>
</svg>
