<svg xmlns="http://www.w3.org/2000/svg" width="24" height="23.99" viewBox="0 0 24 23.99">
  <path id="twitter" d="M12,0A12,12,0,1,0,24,12,12,12,0,0,0,12,0Zm5.479,9.353q.008.177.008.356A7.782,7.782,0,0,1,9.65,17.542h0a7.8,7.8,0,0,1-4.222-1.237,5.6,5.6,0,0,0,.657.038,5.528,5.528,0,0,0,3.421-1.179,2.757,2.757,0,0,1-2.573-1.912,2.746,2.746,0,0,0,1.244-.047,2.754,2.754,0,0,1-2.21-2.7c0-.012,0-.024,0-.035a2.736,2.736,0,0,0,1.247.344A2.755,2.755,0,0,1,6.363,7.14a7.821,7.821,0,0,0,5.677,2.877,2.756,2.756,0,0,1,4.694-2.511,5.526,5.526,0,0,0,1.749-.668A2.764,2.764,0,0,1,17.271,8.36a5.5,5.5,0,0,0,1.582-.434A5.6,5.6,0,0,1,17.479,9.353Zm0,0" fill="#fff"/>
</svg>
