<svg id="youtube_1_" data-name="youtube (1)" xmlns="http://www.w3.org/2000/svg" width="24" height="24" viewBox="0 0 24 24">
  <path id="Path_1543" data-name="Path 1543" d="M224.113,212.415l3.8-2.188-3.8-2.188Zm0,0" transform="translate(-213.553 -198.227)" fill="#fff"/>
  <path id="Path_1544" data-name="Path 1544" d="M12,0A12,12,0,1,0,24,12,12,12,0,0,0,12,0Zm7.5,12.012a19.806,19.806,0,0,1-.309,3.607,1.879,1.879,0,0,1-1.322,1.322A45.609,45.609,0,0,1,12,17.25a43.977,43.977,0,0,1-5.868-.321,1.879,1.879,0,0,1-1.322-1.322A19.719,19.719,0,0,1,4.5,12a19.793,19.793,0,0,1,.309-3.607A1.917,1.917,0,0,1,6.132,7.059,45.609,45.609,0,0,1,12,6.75a43.884,43.884,0,0,1,5.868.321,1.879,1.879,0,0,1,1.322,1.322A18.8,18.8,0,0,1,19.5,12.012Zm0,0" fill="#fff"/>
</svg>
